<svg xmlns:xlink="http://www.w3.org/1999/xlink" width="2.856ex" height="2.843ex" style="font-size: 15px; vertical-align: -0.838ex;" viewBox="0 -863.1 1229.8 1223.9" role="img" focusable="false" xmlns="http://www.w3.org/2000/svg">
<defs>
<path stroke-width="1" id="E1-MJMATHI-72" d="M21 287Q22 290 23 295T28 317T38 348T53 381T73 411T99 433T132 442Q161 442 183 430T214 408T225 388Q227 382 228 382T236 389Q284 441 347 441H350Q398 441 422 400Q430 381 430 363Q430 333 417 315T391 292T366 288Q346 288 334 299T322 328Q322 376 378 392Q356 405 342 405Q286 405 239 331Q229 315 224 298T190 165Q156 25 151 16Q138 -11 108 -11Q95 -11 87 -5T76 7T74 17Q74 30 114 189T154 366Q154 405 128 405Q107 405 92 377T68 316T57 280Q55 278 41 278H27Q21 284 21 287Z"></path>
<path stroke-width="1" id="E1-MJMAIN-2195" d="M27 492Q17 492 17 511Q17 515 17 517T17 522T19 525T20 528T22 530T26 531T30 532T36 534Q80 545 120 572T180 627Q210 664 223 701T238 755T250 772T261 762Q261 757 264 741T282 691T319 628Q352 589 390 566T454 536L479 529Q483 525 483 511Q483 491 472 491Q467 491 458 494Q342 526 277 623L270 633V-133L277 -123Q307 -77 353 -45T430 -2T473 8Q483 8 483 -11Q483 -15 483 -17T483 -22T481 -25T480 -28T478 -30T474 -31T470 -32T464 -34Q407 -49 364 -84T300 -157T270 -223T261 -262Q259 -272 250 -272Q242 -272 239 -255T223 -201T180 -127Q169 -112 155 -99T125 -76T95 -58T67 -45T44 -36T27 -31L21 -29Q17 -25 17 -11Q17 9 28 9Q33 9 42 6Q158 -26 223 -123L230 -133V633L223 623Q192 577 146 545T70 502T27 492Z"></path>
</defs>
<g stroke="currentColor" fill="currentColor" stroke-width="0" transform="matrix(1 0 0 -1 0 0)">
 <use xlink:href="#E1-MJMATHI-72" x="0" y="0"></use>
 <use xlink:href="#E1-MJMAIN-2195" x="729" y="0"></use>
</g>
</svg>